# xmcd CD database file
#
# Track frame offsets:
#	150
#	20352
#	47457
#	70547
#	93926
#	114161
#	133127
#	156945
#	182817
#
# Disc length: 2809 seconds
#
# Revision: 1
# Processed by: cddbd v1.5.1PL2 Copyright (c) Steve Scherf et al.
# Submitted via: CDex 1.51
#
DISCID=690af709
DTITLE=Tropicoso - Un Cuento
DYEAR=2004
DGENRE=Salsa
TTITLE0=Que Negro Mas Feo
TTITLE1=No Acepto Que Te Vas
TTITLE2=Dali's Mambo
TTITLE3=Lo Que Me Has Dado
TTITLE4=Tumbao De Tecato
TTITLE5=Desde Que Te Fuiste
TTITLE6=Un Cuento
TTITLE7=Nada Es Igual
TTITLE8=The Imperfectionist
EXTD=YEAR: 2004
EXTT0=
EXTT1=
EXTT2=
EXTT3=
EXTT4=
EXTT5=
EXTT6=
EXTT7=
EXTT8=
PLAYORDER=
